999
dxflib 3.12.2.0
  0
SECTION
  2
HEADER
  9
$ACADVER
  1
AC1015
  9
$HANDSEED
  5
FFFF
  0
ENDSEC
  0
SECTION
  2
TABLES
  0
TABLE
  2
VPORT
  5
8
100
AcDbSymbolTable
 70
1
  0
VPORT
  5
30
100
AcDbSymbolTableRecord
100
AcDbViewportTableRecord
  2
*Active
 70
0
 10
0.0
 20
0.0
 11
1.0
 21
1.0
 12
286.30555555555549
 22
148.5
 13
0.0
 23
0.0
 14
10.0
 24
10.0
 15
10.0
 25
10.0
 16
0.0
 26
0.0
 36
1.0
 17
0.0
 27
0.0
 37
0.0
 40
297.0
 41
1.92798353909465
 42
50.0
 43
0.0
 44
0.0
 50
0.0
 51
0.0
 71
0
 72
100
 73
1
 74
3
 75
1
 76
1
 77
0
 78
0
281
0
 65
1
110
0.0
120
0.0
130
0.0
111
1.0
121
0.0
131
0.0
112
0.0
122
1.0
132
0.0
 79
0
146
0.0
  0
ENDTAB
  0
TABLE
  2
LTYPE
  5
5
100
AcDbSymbolTable
 70
1
  0
LTYPE
  5
16
100
AcDbSymbolTableRecord
100
AcDbLinetypeTableRecord
  2
CONTINUOUS
 70
0
  3
Solid line
 72
65
 73
0
 40
0.0
  0
LTYPE
  5
15
100
AcDbSymbolTableRecord
100
AcDbLinetypeTableRecord
  2
BYLAYER
 70
0
  3

 72
65
 73
0
 40
0.0
  0
LTYPE
  5
14
100
AcDbSymbolTableRecord
100
AcDbLinetypeTableRecord
  2
BYBLOCK
 70
0
  3

 72
65
 73
0
 40
0.0
  0
ENDTAB
  0
TABLE
  2
LAYER
  5
2
100
AcDbSymbolTable
 70
1
  0
LAYER
  5
10
100
AcDbSymbolTableRecord
100
AcDbLayerTableRecord
  2
0
 70
0
 62
250
420
0
  6
CONTINUOUS
370
100
390
F
  0
ENDTAB
  0
TABLE
  2
STYLE
  5
3
100
AcDbSymbolTable
 70
1
  0
STYLE
  5
31
100
AcDbSymbolTableRecord
100
AcDbTextStyleTableRecord
  2
Standard
 70
0
 40
0.0
 41
1.0
 50
0.0
 71
0
 42
2.5
  3

  4

1001
ACAD
1000
txt
1071
0
  0
ENDTAB
  0
TABLE
  2
VIEW
  5
6
100
AcDbSymbolTable
 70
0
  0
ENDTAB
  0
TABLE
  2
UCS
  5
7
100
AcDbSymbolTable
 70
0
  0
ENDTAB
  0
TABLE
  2
APPID
  5
9
100
AcDbSymbolTable
 70
1
  0
APPID
  5
12
100
AcDbSymbolTableRecord
100
AcDbRegAppTableRecord
  2
ACAD
 70
0
  0
ENDTAB
  0
TABLE
  2
DIMSTYLE
  5
A
100
AcDbSymbolTable
 70
1
100
AcDbDimStyleTable
 71
0
  0
DIMSTYLE
105
27
100
AcDbSymbolTableRecord
100
AcDbDimStyleTableRecord
  2
Standard
 41
2.5
 42
0.625
 43
3.75
 44
0.625
 70
0
 73
0
 74
0
 77
1
 78
8
140
2.5
141
2.5
143
0.03937007874016
147
0.625
171
3
172
1
271
2
272
2
274
3
278
44
283
0
284
8
340
31
  0
ENDTAB
  0
TABLE
  2
BLOCK_RECORD
  5
1
100
AcDbSymbolTable
 70
1
  0
BLOCK_RECORD
  5
1F
100
AcDbSymbolTableRecord
100
AcDbBlockTableRecord
  2
*Model_Space
340
22
  0
BLOCK_RECORD
  5
1B
100
AcDbSymbolTableRecord
100
AcDbBlockTableRecord
  2
*Paper_Space
340
1E
  0
BLOCK_RECORD
  5
23
100
AcDbSymbolTableRecord
100
AcDbBlockTableRecord
  2
*Paper_Space0
340
26
  0
ENDTAB
  0
ENDSEC
  0
SECTION
  2
ENTITIES
  0
LWPOLYLINE
  5
32
  8
mainlayer
 62
133
370
-100
 48
1.0
  6
BYLAYER
100
AcDbEntity
100
AcDbPolyline
 90
45
 70
0
 10
66.0
 20
523.0
 30
0.0
 10
66.0
 20
523.0
 30
0.0
 10
71.0
 20
523.0
 30
0.0
 10
76.0
 20
523.0
 30
0.0
 10
81.0
 20
523.0
 30
0.0
 10
86.0
 20
523.0
 30
0.0
 10
91.0
 20
523.0
 30
0.0
 10
96.0
 20
522.0
 30
0.0
 10
101.0
 20
522.0
 30
0.0
 10
106.0
 20
521.0
 30
0.0
 10
111.0
 20
521.0
 30
0.0
 10
116.0
 20
520.0
 30
0.0
 10
121.0
 20
519.0
 30
0.0
 10
126.0
 20
519.0
 30
0.0
 10
131.0
 20
519.0
 30
0.0
 10
136.0
 20
519.0
 30
0.0
 10
141.0
 20
518.0
 30
0.0
 10
146.0
 20
518.0
 30
0.0
 10
151.0
 20
518.0
 30
0.0
 10
156.0
 20
518.0
 30
0.0
 10
161.0
 20
517.0
 30
0.0
 10
166.0
 20
517.0
 30
0.0
 10
171.0
 20
517.0
 30
0.0
 10
176.0
 20
517.0
 30
0.0
 10
181.0
 20
517.0
 30
0.0
 10
186.0
 20
517.0
 30
0.0
 10
191.0
 20
517.0
 30
0.0
 10
196.0
 20
517.0
 30
0.0
 10
201.0
 20
517.0
 30
0.0
 10
206.0
 20
517.0
 30
0.0
 10
211.0
 20
517.0
 30
0.0
 10
216.0
 20
516.0
 30
0.0
 10
221.0
 20
516.0
 30
0.0
 10
226.0
 20
516.0
 30
0.0
 10
231.0
 20
515.0
 30
0.0
 10
236.0
 20
515.0
 30
0.0
 10
241.0
 20
515.0
 30
0.0
 10
246.0
 20
515.0
 30
0.0
 10
251.0
 20
515.0
 30
0.0
 10
256.0
 20
516.0
 30
0.0
 10
261.0
 20
517.0
 30
0.0
 10
266.0
 20
518.0
 30
0.0
 10
271.0
 20
518.0
 30
0.0
 10
276.0
 20
517.0
 30
0.0
 10
281.0
 20
515.0
 30
0.0
 10
283.0
 20
514.0
 30
0.0
  0
LWPOLYLINE
  5
33
  8
mainlayer
 62
133
370
-100
 48
1.0
  6
BYLAYER
100
AcDbEntity
100
AcDbPolyline
 90
71
 70
0
 10
468.0
 20
291.0
 30
0.0
 10
468.0
 20
291.0
 30
0.0
 10
463.0
 20
291.0
 30
0.0
 10
458.0
 20
291.0
 30
0.0
 10
453.0
 20
292.0
 30
0.0
 10
448.0
 20
293.0
 30
0.0
 10
443.0
 20
293.0
 30
0.0
 10
438.0
 20
293.0
 30
0.0
 10
433.0
 20
294.0
 30
0.0
 10
428.0
 20
294.0
 30
0.0
 10
423.0
 20
294.0
 30
0.0
 10
418.0
 20
295.0
 30
0.0
 10
413.0
 20
295.0
 30
0.0
 10
408.0
 20
296.0
 30
0.0
 10
403.0
 20
297.0
 30
0.0
 10
398.0
 20
297.0
 30
0.0
 10
393.0
 20
298.0
 30
0.0
 10
388.0
 20
298.0
 30
0.0
 10
383.0
 20
299.0
 30
0.0
 10
378.0
 20
299.0
 30
0.0
 10
373.0
 20
300.0
 30
0.0
 10
368.0
 20
301.0
 30
0.0
 10
363.0
 20
301.0
 30
0.0
 10
358.0
 20
302.0
 30
0.0
 10
353.0
 20
302.0
 30
0.0
 10
348.0
 20
303.0
 30
0.0
 10
343.0
 20
303.0
 30
0.0
 10
338.0
 20
303.0
 30
0.0
 10
335.0
 20
306.0
 30
0.0
 10
335.0
 20
311.0
 30
0.0
 10
335.0
 20
316.0
 30
0.0
 10
336.0
 20
321.0
 30
0.0
 10
336.0
 20
326.0
 30
0.0
 10
336.0
 20
331.0
 30
0.0
 10
336.0
 20
336.0
 30
0.0
 10
336.0
 20
341.0
 30
0.0
 10
336.0
 20
346.0
 30
0.0
 10
336.0
 20
351.0
 30
0.0
 10
336.0
 20
356.0
 30
0.0
 10
336.0
 20
361.0
 30
0.0
 10
337.0
 20
366.0
 30
0.0
 10
337.0
 20
371.0
 30
0.0
 10
337.0
 20
376.0
 30
0.0
 10
338.0
 20
381.0
 30
0.0
 10
338.0
 20
386.0
 30
0.0
 10
338.0
 20
391.0
 30
0.0
 10
338.0
 20
396.0
 30
0.0
 10
338.0
 20
401.0
 30
0.0
 10
339.0
 20
406.0
 30
0.0
 10
341.0
 20
411.0
 30
0.0
 10
342.0
 20
416.0
 30
0.0
 10
343.0
 20
421.0
 30
0.0
 10
344.0
 20
426.0
 30
0.0
 10
344.0
 20
431.0
 30
0.0
 10
345.0
 20
436.0
 30
0.0
 10
345.0
 20
441.0
 30
0.0
 10
346.0
 20
446.0
 30
0.0
 10
348.0
 20
451.0
 30
0.0
 10
349.0
 20
456.0
 30
0.0
 10
350.0
 20
461.0
 30
0.0
 10
351.0
 20
466.0
 30
0.0
 10
352.0
 20
471.0
 30
0.0
 10
353.0
 20
476.0
 30
0.0
 10
354.0
 20
481.0
 30
0.0
 10
355.0
 20
486.0
 30
0.0
 10
356.0
 20
491.0
 30
0.0
 10
358.0
 20
496.0
 30
0.0
 10
358.0
 20
501.0
 30
0.0
 10
360.0
 20
506.0
 30
0.0
 10
362.0
 20
511.0
 30
0.0
 10
364.0
 20
516.0
 30
0.0
 10
365.0
 20
516.0
 30
0.0
  0
LWPOLYLINE
  5
34
  8
mainlayer
 62
133
370
-100
 48
1.0
  6
BYLAYER
100
AcDbEntity
100
AcDbPolyline
 90
41
 70
0
 10
367.0
 20
513.0
 30
0.0
 10
367.0
 20
513.0
 30
0.0
 10
372.0
 20
513.0
 30
0.0
 10
377.0
 20
513.0
 30
0.0
 10
382.0
 20
513.0
 30
0.0
 10
387.0
 20
513.0
 30
0.0
 10
392.0
 20
513.0
 30
0.0
 10
397.0
 20
513.0
 30
0.0
 10
402.0
 20
513.0
 30
0.0
 10
407.0
 20
513.0
 30
0.0
 10
412.0
 20
512.0
 30
0.0
 10
417.0
 20
512.0
 30
0.0
 10
422.0
 20
511.0
 30
0.0
 10
427.0
 20
511.0
 30
0.0
 10
432.0
 20
511.0
 30
0.0
 10
437.0
 20
511.0
 30
0.0
 10
442.0
 20
511.0
 30
0.0
 10
447.0
 20
511.0
 30
0.0
 10
452.0
 20
511.0
 30
0.0
 10
457.0
 20
511.0
 30
0.0
 10
462.0
 20
511.0
 30
0.0
 10
467.0
 20
511.0
 30
0.0
 10
472.0
 20
511.0
 30
0.0
 10
477.0
 20
511.0
 30
0.0
 10
482.0
 20
511.0
 30
0.0
 10
487.0
 20
511.0
 30
0.0
 10
492.0
 20
510.0
 30
0.0
 10
497.0
 20
510.0
 30
0.0
 10
502.0
 20
510.0
 30
0.0
 10
507.0
 20
510.0
 30
0.0
 10
512.0
 20
510.0
 30
0.0
 10
517.0
 20
509.0
 30
0.0
 10
522.0
 20
509.0
 30
0.0
 10
527.0
 20
509.0
 30
0.0
 10
532.0
 20
508.0
 30
0.0
 10
537.0
 20
508.0
 30
0.0
 10
542.0
 20
506.0
 30
0.0
 10
547.0
 20
505.0
 30
0.0
 10
552.0
 20
504.0
 30
0.0
 10
557.0
 20
502.0
 30
0.0
 10
562.0
 20
501.0
 30
0.0
 10
563.0
 20
501.0
 30
0.0
  0
LWPOLYLINE
  5
35
  8
mainlayer
 62
133
370
-100
 48
1.0
  6
BYLAYER
100
AcDbEntity
100
AcDbPolyline
 90
53
 70
0
 10
164.0
 20
509.0
 30
0.0
 10
164.0
 20
509.0
 30
0.0
 10
164.0
 20
504.0
 30
0.0
 10
164.0
 20
499.0
 30
0.0
 10
164.0
 20
494.0
 30
0.0
 10
164.0
 20
489.0
 30
0.0
 10
164.0
 20
484.0
 30
0.0
 10
163.0
 20
479.0
 30
0.0
 10
163.0
 20
474.0
 30
0.0
 10
163.0
 20
469.0
 30
0.0
 10
163.0
 20
464.0
 30
0.0
 10
163.0
 20
459.0
 30
0.0
 10
162.0
 20
454.0
 30
0.0
 10
162.0
 20
449.0
 30
0.0
 10
161.0
 20
444.0
 30
0.0
 10
161.0
 20
439.0
 30
0.0
 10
160.0
 20
434.0
 30
0.0
 10
159.0
 20
429.0
 30
0.0
 10
159.0
 20
424.0
 30
0.0
 10
158.0
 20
419.0
 30
0.0
 10
158.0
 20
414.0
 30
0.0
 10
157.0
 20
409.0
 30
0.0
 10
157.0
 20
404.0
 30
0.0
 10
157.0
 20
399.0
 30
0.0
 10
156.0
 20
394.0
 30
0.0
 10
155.0
 20
389.0
 30
0.0
 10
154.0
 20
384.0
 30
0.0
 10
153.0
 20
379.0
 30
0.0
 10
153.0
 20
374.0
 30
0.0
 10
152.0
 20
369.0
 30
0.0
 10
152.0
 20
364.0
 30
0.0
 10
151.0
 20
359.0
 30
0.0
 10
150.0
 20
354.0
 30
0.0
 10
150.0
 20
349.0
 30
0.0
 10
149.0
 20
344.0
 30
0.0
 10
149.0
 20
339.0
 30
0.0
 10
148.0
 20
334.0
 30
0.0
 10
147.0
 20
329.0
 30
0.0
 10
146.0
 20
324.0
 30
0.0
 10
145.0
 20
319.0
 30
0.0
 10
145.0
 20
314.0
 30
0.0
 10
144.0
 20
309.0
 30
0.0
 10
144.0
 20
304.0
 30
0.0
 10
144.0
 20
299.0
 30
0.0
 10
143.0
 20
294.0
 30
0.0
 10
143.0
 20
289.0
 30
0.0
 10
143.0
 20
284.0
 30
0.0
 10
142.0
 20
279.0
 30
0.0
 10
141.0
 20
274.0
 30
0.0
 10
140.0
 20
269.0
 30
0.0
 10
139.0
 20
264.0
 30
0.0
 10
139.0
 20
259.0
 30
0.0
 10
138.0
 20
254.0
 30
0.0
 10
138.0
 20
252.0
 30
0.0
  0
LWPOLYLINE
  5
36
  8
mainlayer
 62
0
370
-100
 48
1.0
  6
BYLAYER
100
AcDbEntity
100
AcDbPolyline
 90
32
 70
0
 10
705.0
 20
431.0
 30
0.0
 10
705.0
 20
431.0
 30
0.0
 10
710.0
 20
431.0
 30
0.0
 10
715.0
 20
431.0
 30
0.0
 10
720.0
 20
431.0
 30
0.0
 10
725.0
 20
431.0
 30
0.0
 10
730.0
 20
431.0
 30
0.0
 10
735.0
 20
431.0
 30
0.0
 10
740.0
 20
431.0
 30
0.0
 10
745.0
 20
431.0
 30
0.0
 10
750.0
 20
431.0
 30
0.0
 10
755.0
 20
431.0
 30
0.0
 10
760.0
 20
431.0
 30
0.0
 10
765.0
 20
431.0
 30
0.0
 10
770.0
 20
431.0
 30
0.0
 10
775.0
 20
431.0
 30
0.0
 10
780.0
 20
431.0
 30
0.0
 10
785.0
 20
431.0
 30
0.0
 10
790.0
 20
431.0
 30
0.0
 10
795.0
 20
431.0
 30
0.0
 10
800.0
 20
431.0
 30
0.0
 10
805.0
 20
431.0
 30
0.0
 10
810.0
 20
431.0
 30
0.0
 10
815.0
 20
431.0
 30
0.0
 10
820.0
 20
431.0
 30
0.0
 10
825.0
 20
431.0
 30
0.0
 10
830.0
 20
431.0
 30
0.0
 10
835.0
 20
431.0
 30
0.0
 10
840.0
 20
431.0
 30
0.0
 10
845.0
 20
431.0
 30
0.0
 10
850.0
 20
431.0
 30
0.0
 10
855.0
 20
431.0
 30
0.0
 10
857.0
 20
431.0
 30
0.0
  0
LWPOLYLINE
  5
37
  8
mainlayer
 62
0
370
-100
 48
1.0
  6
BYLAYER
100
AcDbEntity
100
AcDbPolyline
 90
41
 70
0
 10
754.0
 20
430.0
 30
0.0
 10
754.0
 20
430.0
 30
0.0
 10
754.0
 20
425.0
 30
0.0
 10
754.0
 20
420.0
 30
0.0
 10
754.0
 20
415.0
 30
0.0
 10
754.0
 20
410.0
 30
0.0
 10
754.0
 20
405.0
 30
0.0
 10
754.0
 20
400.0
 30
0.0
 10
754.0
 20
395.0
 30
0.0
 10
754.0
 20
390.0
 30
0.0
 10
754.0
 20
385.0
 30
0.0
 10
754.0
 20
380.0
 30
0.0
 10
754.0
 20
375.0
 30
0.0
 10
754.0
 20
370.0
 30
0.0
 10
754.0
 20
365.0
 30
0.0
 10
754.0
 20
360.0
 30
0.0
 10
754.0
 20
355.0
 30
0.0
 10
754.0
 20
350.0
 30
0.0
 10
754.0
 20
345.0
 30
0.0
 10
754.0
 20
340.0
 30
0.0
 10
754.0
 20
335.0
 30
0.0
 10
754.0
 20
330.0
 30
0.0
 10
754.0
 20
325.0
 30
0.0
 10
754.0
 20
320.0
 30
0.0
 10
754.0
 20
315.0
 30
0.0
 10
754.0
 20
310.0
 30
0.0
 10
754.0
 20
305.0
 30
0.0
 10
754.0
 20
300.0
 30
0.0
 10
754.0
 20
295.0
 30
0.0
 10
753.0
 20
290.0
 30
0.0
 10
753.0
 20
285.0
 30
0.0
 10
753.0
 20
280.0
 30
0.0
 10
753.0
 20
275.0
 30
0.0
 10
752.0
 20
270.0
 30
0.0
 10
752.0
 20
265.0
 30
0.0
 10
751.0
 20
260.0
 30
0.0
 10
751.0
 20
255.0
 30
0.0
 10
751.0
 20
250.0
 30
0.0
 10
750.0
 20
245.0
 30
0.0
 10
750.0
 20
240.0
 30
0.0
 10
750.0
 20
235.0
 30
0.0
 10
750.0
 20
235.0
 30
0.0
  0
LWPOLYLINE
  5
38
  8
mainlayer
 62
0
370
-100
 48
1.0
  6
BYLAYER
100
AcDbEntity
100
AcDbPolyline
 90
53
 70
0
 10
566.0
 20
284.0
 30
0.0
 10
566.0
 20
284.0
 30
0.0
 10
571.0
 20
283.0
 30
0.0
 10
576.0
 20
280.0
 30
0.0
 10
581.0
 20
277.0
 30
0.0
 10
586.0
 20
274.0
 30
0.0
 10
591.0
 20
272.0
 30
0.0
 10
596.0
 20
272.0
 30
0.0
 10
601.0
 20
272.0
 30
0.0
 10
606.0
 20
272.0
 30
0.0
 10
611.0
 20
272.0
 30
0.0
 10
616.0
 20
272.0
 30
0.0
 10
621.0
 20
272.0
 30
0.0
 10
626.0
 20
273.0
 30
0.0
 10
631.0
 20
274.0
 30
0.0
 10
636.0
 20
275.0
 30
0.0
 10
641.0
 20
278.0
 30
0.0
 10
646.0
 20
282.0
 30
0.0
 10
649.0
 20
287.0
 30
0.0
 10
649.0
 20
292.0
 30
0.0
 10
649.0
 20
297.0
 30
0.0
 10
649.0
 20
302.0
 30
0.0
 10
649.0
 20
307.0
 30
0.0
 10
647.0
 20
312.0
 30
0.0
 10
644.0
 20
317.0
 30
0.0
 10
639.0
 20
322.0
 30
0.0
 10
634.0
 20
327.0
 30
0.0
 10
629.0
 20
331.0
 30
0.0
 10
624.0
 20
336.0
 30
0.0
 10
619.0
 20
340.0
 30
0.0
 10
614.0
 20
345.0
 30
0.0
 10
609.0
 20
349.0
 30
0.0
 10
605.0
 20
354.0
 30
0.0
 10
601.0
 20
359.0
 30
0.0
 10
597.0
 20
364.0
 30
0.0
 10
596.0
 20
369.0
 30
0.0
 10
596.0
 20
374.0
 30
0.0
 10
596.0
 20
379.0
 30
0.0
 10
596.0
 20
384.0
 30
0.0
 10
596.0
 20
389.0
 30
0.0
 10
596.0
 20
394.0
 30
0.0
 10
596.0
 20
399.0
 30
0.0
 10
598.0
 20
404.0
 30
0.0
 10
600.0
 20
409.0
 30
0.0
 10
603.0
 20
414.0
 30
0.0
 10
607.0
 20
419.0
 30
0.0
 10
611.0
 20
424.0
 30
0.0
 10
616.0
 20
428.0
 30
0.0
 10
621.0
 20
429.0
 30
0.0
 10
626.0
 20
429.0
 30
0.0
 10
631.0
 20
429.0
 30
0.0
 10
636.0
 20
429.0
 30
0.0
 10
641.0
 20
428.0
 30
0.0
 10
644.0
 20
428.0
 30
0.0
  0
LWPOLYLINE
  5
39
  8
mainlayer
 62
133
370
-100
 48
1.0
  6
BYLAYER
100
AcDbEntity
100
AcDbPolyline
 90
33
 70
0
 10
357.0
 20
411.0
 30
0.0
 10
357.0
 20
411.0
 30
0.0
 10
362.0
 20
412.0
 30
0.0
 10
367.0
 20
413.0
 30
0.0
 10
372.0
 20
414.0
 30
0.0
 10
377.0
 20
414.0
 30
0.0
 10
382.0
 20
415.0
 30
0.0
 10
387.0
 20
416.0
 30
0.0
 10
392.0
 20
417.0
 30
0.0
 10
397.0
 20
418.0
 30
0.0
 10
402.0
 20
418.0
 30
0.0
 10
407.0
 20
419.0
 30
0.0
 10
412.0
 20
419.0
 30
0.0
 10
417.0
 20
419.0
 30
0.0
 10
422.0
 20
419.0
 30
0.0
 10
427.0
 20
419.0
 30
0.0
 10
432.0
 20
419.0
 30
0.0
 10
437.0
 20
419.0
 30
0.0
 10
442.0
 20
419.0
 30
0.0
 10
447.0
 20
419.0
 30
0.0
 10
452.0
 20
419.0
 30
0.0
 10
457.0
 20
419.0
 30
0.0
 10
462.0
 20
419.0
 30
0.0
 10
467.0
 20
419.0
 30
0.0
 10
472.0
 20
419.0
 30
0.0
 10
477.0
 20
419.0
 30
0.0
 10
482.0
 20
419.0
 30
0.0
 10
487.0
 20
419.0
 30
0.0
 10
492.0
 20
419.0
 30
0.0
 10
497.0
 20
419.0
 30
0.0
 10
502.0
 20
419.0
 30
0.0
 10
507.0
 20
418.0
 30
0.0
 10
512.0
 20
417.0
 30
0.0
 10
515.0
 20
417.0
 30
0.0
  0
ENDSEC
  0
SECTION
  2
OBJECTS
  0
DICTIONARY
  5
C
100
AcDbDictionary
280
0
281
1
  3
ACAD_GROUP
350
D
  3
ACAD_LAYOUT
350
1A
  3
ACAD_MLINESTYLE
350
17
  3
ACAD_PLOTSETTINGS
350
19
  3
ACAD_PLOTSTYLENAME
350
E
  3
AcDbVariableDictionary
350
3A
  3
MY_OBJECTS
350
3B
  0
DICTIONARY
  5
D
100
AcDbDictionary
280
0
281
1
  0
ACDBDICTIONARYWDFLT
  5
E
100
AcDbDictionary
281
1
  3
Normal
350
F
100
AcDbDictionaryWithDefault
340
F
  0
ACDBPLACEHOLDER
  5
F
  0
DICTIONARY
  5
17
100
AcDbDictionary
280
0
281
1
  3
Standard
350
18
  0
MLINESTYLE
  5
18
100
AcDbMlineStyle
  2
STANDARD
 70
0
  3

 62
256
 51
90.0
 52
90.0
 71
2
 49
0.5
 62
256
  6
BYLAYER
 49
-0.5
 62
256
  6
BYLAYER
  0
DICTIONARY
  5
19
100
AcDbDictionary
280
0
281
1
  0
DICTIONARY
  5
1A
100
AcDbDictionary
281
1
  3
Layout1
350
1E
  3
Layout2
350
26
  3
Model
350
22
  0
LAYOUT
  5
1E
100
AcDbPlotSettings
  1

  2
none_device
  4

  6

 40
0.0
 41
0.0
 42
0.0
 43
0.0
 44
0.0
 45
0.0
 46
0.0
 47
0.0
 48
0.0
 49
0.0
140
0.0
141
0.0
142
1.0
143
1.0
 70
688
 72
0
 73
0
 74
5
  7

 75
16
147
1.0
148
0.0
149
0.0
100
AcDbLayout
  1
Layout1
 70
1
 71
1
 10
0.0
 20
0.0
 11
420.0
 21
297.0
 12
0.0
 22
0.0
 32
0.0
 14
100000000000000000000.0
 24
100000000000000000000.0
 34
100000000000000000000.0
 15
-100000000000000000000.0
 25
-100000000000000000000.0
 35
-100000000000000000000.0
146
0.0
 13
0.0
 23
0.0
 33
0.0
 16
1.0
 26
0.0
 36
0.0
 17
0.0
 27
1.0
 37
0.0
 76
0
330
1B
  0
LAYOUT
  5
22
100
AcDbPlotSettings
  1

  2
none_device
  4

  6

 40
0.0
 41
0.0
 42
0.0
 43
0.0
 44
0.0
 45
0.0
 46
0.0
 47
0.0
 48
0.0
 49
0.0
140
0.0
141
0.0
142
1.0
143
1.0
 70
1712
 72
0
 73
0
 74
0
  7

 75
0
147
1.0
148
0.0
149
0.0
100
AcDbLayout
  1
Model
 70
1
 71
0
 10
0.0
 20
0.0
 11
12.0
 21
9.0
 12
0.0
 22
0.0
 32
0.0
 14
0.0
 24
0.0
 34
0.0
 15
0.0
 25
0.0
 35
0.0
146
0.0
 13
0.0
 23
0.0
 33
0.0
 16
1.0
 26
0.0
 36
0.0
 17
0.0
 27
1.0
 37
0.0
 76
0
330
1F
  0
LAYOUT
  5
26
100
AcDbPlotSettings
  1

  2
none_device
  4

  6

 40
0.0
 41
0.0
 42
0.0
 43
0.0
 44
0.0
 45
0.0
 46
0.0
 47
0.0
 48
0.0
 49
0.0
140
0.0
141
0.0
142
1.0
143
1.0
 70
688
 72
0
 73
0
 74
5
  7

 75
16
147
1.0
148
0.0
149
0.0
100
AcDbLayout
  1
Layout2
 70
1
 71
2
 10
0.0
 20
0.0
 11
12.0
 21
9.0
 12
0.0
 22
0.0
 32
0.0
 14
0.0
 24
0.0
 34
0.0
 15
0.0
 25
0.0
 35
0.0
146
0.0
 13
0.0
 23
0.0
 33
0.0
 16
1.0
 26
0.0
 36
0.0
 17
0.0
 27
1.0
 37
0.0
 76
0
330
23
  0
DICTIONARY
  5
3A
100
AcDbDictionary
281
1
  3
DIMASSOC
350
3D
  3
HIDETEXT
350
3C
  0
DICTIONARYVAR
  5
3C
100
DictionaryVariables
280
0
  1
2
  0
DICTIONARYVAR
  5
3D
100
DictionaryVariables
280
0
  1
1
  0
ENDSEC
  0
EOF
